PathFileType	4	(X/Y/Z)	s03c0301.trc
DataRate	CameraRate	NumFrames	NumMarkers	Units	OrigDataRate	OrigDataStartFrame	OrigNumFrames
200	200	6	52	mm	200	1250	2000
Frame#	Time	racr			lacr			c7			jug			rlel			rdr			llel			ldr			s2			lic			ric			lasi			rasi			rpsi			lpsi			rgt			lgt			rth1			rth2			rth3			rth4			rlfc			rmfc			rsh1			rsh2			rsh3			rsh4			rlmal			rmmal			rcal			rtoe			rmt5			rmt1			lth1			lth2			lth4			lth3			llfc			lmfc			lsh1			lsh2			lsh3			lsh4			llmal			lmmal			lcal			ltoe			lmt1			lmt5			SBIKE			LBIKE			RBIKE			
		X1	Y1	Z1	X2	Y2	Z2	X3	Y3	Z3	X4	Y4	Z4	X5	Y5	Z5	X6	Y6	Z6	X7	Y7	Z7	X8	Y8	Z8	X9	Y9	Z9	X10	Y10	Z10	X11	Y11	Z11	X12	Y12	Z12	X13	Y13	Z13	X14	Y14	Z14	X15	Y15	Z15	X16	Y16	Z16	X17	Y17	Z17	X18	Y18	Z18	X19	Y19	Z19	X20	Y20	Z20	X21	Y21	Z21	X22	Y22	Z22	X23	Y23	Z23	X24	Y24	Z24	X25	Y25	Z25	X26	Y26	Z26	X27	Y27	Z27	X28	Y28	Z28	X29	Y29	Z29	X30	Y30	Z30	X31	Y31	Z31	X32	Y32	Z32	X33	Y33	Z33	X34	Y34	Z34	X35	Y35	Z35	X36	Y36	Z36	X37	Y37	Z37	X38	Y38	Z38	X39	Y39	Z39	X40	Y40	Z40	X41	Y41	Z41	X42	Y42	Z42	X43	Y43	Z43	X44	Y44	Z44	X45	Y45	Z45	X46	Y46	Z46	X47	Y47	Z47	X48	Y48	Z48	X49	Y49	Z49	X50	Y50	Z50	X51	Y51	Z51	X52	Y52	Z52	
1250	6.2500	710.770282	1442.672065	-82.554690	719.761141	1441.018183	-389.119418	668.979120	1535.335305	-243.171990	646.478226	1358.133930	-238.292059	587.892934	1190.070987	24.686139	736.828963	957.085928	-44.313604	651.161805	1190.396120	-512.827576	744.392271	920.329284	-432.950111	111.007190	1327.491353	-239.157743	288.482222	1320.369248	-424.333184	269.508639	1362.643874	-58.517535	297.209232	1252.729997	-380.104884	291.841377	1293.033514	-94.901730	140.556754	1381.233666	-204.233303	148.104534	1370.754845	-288.424495	231.136315	1271.022027	-41.138391	208.426513	1201.273707	-427.214252	334.597024	1148.953143	-22.077663	415.197156	1111.272295	-26.110518	467.150918	1043.469673	-31.756096	436.464640	1139.112773	-39.175802	555.880668	947.521270	-59.285066	557.294853	930.880697	-189.032598	471.093482	803.308228	-33.761452	438.584788	720.899094	-44.747338	370.186858	665.371163	-39.973922	460.738020	705.754109	-71.488943	286.686602	555.939140	-53.108552	305.526091	563.453274	-143.653060	207.542777	527.246431	-84.660015	501.720499	437.670795	-129.611567	393.705121	451.617144	-42.365947	406.508040	463.177598	-159.520991	255.890702	1052.054719	-444.034081	298.939986	976.595122	-446.728161	333.245263	985.696416	-439.411443	298.304802	887.761814	-446.414931	338.230001	767.714197	-435.135538	336.246275	748.401456	-313.334137	237.851418	624.926778	-459.845995	220.791768	543.480985	-444.756050	160.512541	475.652387	-438.195804	251.571549	529.379053	-423.911162	97.165451	367.246360	-420.107227	135.745383	361.598369	-337.504992	28.295043	375.136596	-373.961805	240.199994	151.007819	-350.409606	173.485837	220.256904	-319.303852	141.746663	213.346246	-432.483906	-214.670537	945.470773	-232.625032	-9.496621	81.116491	-433.483507	-9.573672	81.237340	-32.691546	
1251	6.2550	710.517548	1441.409159	-80.337538	719.239528	1441.367969	-388.951896	669.350342	1535.106199	-242.335529	645.526190	1358.077236	-237.465219	586.480599	1189.380115	24.708216	736.236783	957.330387	-44.287947	650.155060	1190.854226	-512.574180	743.727595	920.593057	-432.688377	109.682572	1330.160013	-235.875993	286.681065	1324.297914	-423.184677	270.244857	1362.837407	-57.051496	295.750211	1255.312087	-380.145280	291.380970	1293.234430	-93.748845	141.061472	1382.584219	-202.634212	148.910805	1372.154370	-288.891044	230.510171	1270.696781	-40.199013	207.677795	1205.092673	-426.749712	332.010502	1146.056203	-21.720642	411.895062	1106.968293	-26.100640	462.656962	1038.302564	-32.156297	433.760764	1134.510070	-38.828601	549.780799	939.980212	-61.230851	549.560574	924.810131	-189.675260	467.665796	794.180486	-34.594590	437.151570	711.083180	-45.773010	370.119157	653.811459	-40.921461	460.854570	696.466317	-72.564794	289.051652	543.203913	-53.461059	307.171785	550.721310	-144.450708	210.699872	512.107961	-85.234776	507.426193	432.006134	-129.181076	398.849617	442.789845	-42.197237	411.448682	454.503429	-159.385320	259.119568	1056.103578	-444.430872	304.104428	981.799493	-447.751147	338.163594	991.654903	-440.214438	305.804941	892.963323	-448.350964	347.400026	772.942316	-437.833401	347.364990	753.312919	-316.505796	243.436943	631.527518	-460.908096	224.394642	550.912409	-445.578288	162.485229	484.615644	-438.243890	255.027220	536.384021	-425.423273	96.679473	377.792340	-419.134471	136.647755	371.174282	-336.737291	28.235796	387.613934	-372.052016	232.317889	155.786712	-351.122060	167.149244	226.232858	-317.774273	135.924629	222.094747	-431.720727	-214.552787	945.524766	-232.339364	-9.492748	81.194493	-433.452617	-9.581307	81.247116	-32.680071	
1252	6.2600	710.854727	1440.006787	-79.780024	718.619182	1441.844840	-389.039603	669.691042	1534.823553	-241.460672	644.983800	1357.895571	-237.372238	585.309947	1188.829384	24.650666	735.828632	957.485557	-44.261341	649.163524	1191.233258	-512.221007	743.224025	921.026335	-432.545408	110.010010	1332.689013	-231.793994	285.233324	1327.750300	-421.998864	271.340081	1362.633485	-55.761198	294.519255	1257.553865	-379.798211	291.247507	1292.723237	-92.910049	140.554620	1384.745678	-198.117640	150.419969	1373.621039	-277.362760	229.846160	1269.886213	-39.207620	207.132975	1208.805922	-426.365939	329.438219	1142.609231	-21.265104	408.545311	1102.103615	-26.011598	457.967619	1032.481892	-32.748694	431.129149	1129.450966	-38.238228	542.893948	931.974076	-62.782581	541.897789	917.592992	-190.722414	463.885384	784.832649	-35.556372	435.041270	700.820705	-46.890547	369.725222	641.932561	-42.155106	459.509568	687.059943	-73.807782	291.085363	530.304731	-54.352623	308.863761	537.748406	-145.493551	213.364464	497.096612	-86.076173	512.663453	425.560182	-128.635698	404.246585	433.721773	-42.019204	416.130108	445.190964	-159.208363	262.426743	1060.215148	-444.880198	309.227687	987.091557	-448.767871	342.952063	997.740586	-441.081682	313.097500	898.326828	-450.205579	356.164908	778.345517	-440.743481	358.418989	758.349676	-319.630744	249.056539	638.468145	-462.581834	228.154827	558.300374	-446.368595	164.742369	493.510998	-438.276175	258.539691	543.281825	-426.404485	96.699237	388.071032	-418.359963	137.458212	380.447222	-336.064928	28.394527	399.984679	-371.243959	224.993708	161.020124	-351.449095	160.935121	232.286248	-316.002489	131.099461	231.036428	-431.149441	-214.382101	945.582202	-232.098630	-9.489566	81.256195	-433.435176	-9.566612	81.247753	-32.660623	
1253	6.2650	711.420000	1438.591490	-79.380960	718.001956	1442.357174	-389.263552	670.009886	1534.505274	-240.760639	644.660122	1357.651802	-237.435693	584.315183	1188.382719	24.601260	735.541366	957.577101	-44.182371	648.195507	1191.575273	-511.887624	743.533166	922.792400	-435.093272	109.895532	1334.508145	-228.886481	284.034144	1330.526853	-420.691716	272.307861	1362.136479	-54.277467	293.702518	1259.277000	-379.125988	291.502181	1291.389190	-92.485275	141.670589	1385.950078	-195.865596	150.183079	1375.929599	-277.816112	229.127107	1268.621675	-38.246997	207.116205	1212.139710	-426.343581	327.041941	1138.693020	-20.617305	405.149578	1096.721909	-25.882299	453.316931	1026.387381	-32.463781	428.234411	1123.827496	-37.588294	535.800895	923.403404	-63.823946	534.250807	910.002257	-190.342301	459.556348	775.103994	-36.689137	433.033970	690.444561	-48.179276	369.309399	629.725349	-43.517787	457.642085	677.353525	-75.370775	292.850983	516.950065	-55.706260	310.674686	524.760194	-146.663017	215.866625	482.266358	-87.289801	517.402510	418.488196	-127.576733	408.201009	424.030723	-41.920265	420.542331	435.634187	-159.114100	265.679517	1064.358658	-445.254781	314.107442	992.340912	-449.726580	347.575415	1003.630926	-442.033034	320.042808	903.634165	-452.014316	364.545060	783.689167	-443.362219	369.166283	763.469877	-322.570142	254.635928	645.294673	-464.395135	232.065458	565.403438	-447.157591	167.326796	502.105419	-438.432551	261.849726	549.355932	-425.914077	97.278139	398.110199	-417.937387	138.310083	389.539269	-335.627237	29.117921	411.615316	-370.495424	218.688917	166.971012	-351.335978	154.802094	238.365095	-313.909298	126.996042	239.925399	-430.725333	-214.216089	945.655475	-231.910231	-9.475289	81.302778	-433.420400	-9.562584	81.240556	-32.695968	
1254	6.2700	712.066651	1437.302851	-79.325351	717.418837	1442.896966	-389.472373	670.354155	1534.124640	-240.073631	644.504561	1357.330328	-237.524060	583.597632	1188.035739	24.625971	735.377381	957.561345	-44.464190	647.109892	1191.814775	-511.518847	743.073995	922.986827	-434.760639	111.592244	1335.710856	-228.379648	283.132047	1332.437801	-419.401168	273.283714	1361.238794	-52.783699	293.181498	1260.609733	-378.183964	291.698275	1290.081654	-91.223957	145.062086	1386.052797	-196.531476	150.073784	1378.032347	-277.067157	228.532687	1266.824713	-37.168144	207.133238	1215.479353	-426.049283	324.168616	1134.439540	-20.866007	401.689322	1091.038053	-25.740376	448.467319	1019.864128	-32.768358	425.280830	1117.688425	-37.079443	528.683610	914.733355	-64.722548	526.588869	902.397202	-190.841189	455.069300	765.059261	-37.458028	431.052682	679.749361	-49.535533	368.548729	617.482467	-44.851733	455.625809	667.455675	-76.849010	294.310184	503.736988	-56.720874	312.533466	511.736122	-147.932973	218.452061	467.430386	-89.491124	521.572129	410.834062	-126.160358	411.387673	413.961668	-41.783181	424.643259	425.851404	-158.770213	268.809918	1068.410745	-445.516236	318.649189	997.663133	-451.039213	351.938413	1009.407633	-443.070859	326.532861	908.903989	-453.643405	372.442865	788.974506	-445.759432	379.678948	768.648060	-325.237132	260.271370	651.689481	-465.737808	236.327367	572.548731	-448.195976	170.156522	510.391504	-438.759503	265.662297	555.779935	-426.756963	98.302340	407.864859	-417.954585	139.420503	398.474423	-335.554618	30.622883	423.428592	-369.856331	212.856990	173.008204	-351.235001	150.027090	245.455260	-312.872928	123.414376	248.723062	-430.395330	-214.066822	945.692107	-231.764460	-9.450530	81.310941	-433.458554	-9.546738	81.243348	-32.716054	
1255	6.2750	712.942033	1436.163557	-79.487173	716.788866	1443.387567	-389.776923	670.645607	1533.605186	-239.518242	644.642561	1356.825258	-237.580677	583.084739	1187.770553	24.972203	735.304715	957.361623	-44.361821	646.102455	1191.933246	-511.013567	742.811659	923.080617	-434.482730	113.489728	1333.810710	-231.201718	282.528848	1333.902932	-418.866283	274.355712	1359.997980	-51.256325	292.950780	1261.470431	-377.000054	291.936836	1288.026417	-90.414182	143.942548	1386.756159	-192.475603	149.873529	1379.409788	-275.527747	227.688401	1264.832133	-36.241514	207.566231	1218.416800	-425.895960	321.656324	1129.973855	-19.437132	398.186531	1085.090065	-25.546630	443.671578	1013.142225	-32.909862	422.347920	1111.161607	-37.587584	521.675208	906.089045	-65.431035	519.131177	893.382412	-187.364239	450.504418	754.493029	-37.819949	428.557987	668.792056	-50.629816	367.546539	605.028999	-46.492157	453.306394	657.333267	-78.216171	295.480298	490.609780	-57.953076	314.277749	498.850421	-149.410669	220.400404	453.146746	-91.524902	525.194376	402.620863	-124.553276	413.861684	403.641116	-41.618188	428.446751	415.701324	-157.967740	271.834784	1072.424018	-445.761048	322.918615	1002.634508	-451.929162	356.040256	1014.972324	-444.145932	332.560309	914.025434	-455.072480	379.926395	794.086711	-447.889136	389.750951	773.990322	-327.853899	265.805641	657.749181	-467.091753	240.534560	579.220125	-449.237253	173.206667	518.283798	-439.301914	269.579254	561.968139	-427.730763	99.535543	417.365344	-418.267805	138.191331	408.979181	-335.575009	32.657098	434.719247	-369.939793	207.536978	179.555508	-351.373053	146.634601	253.546403	-312.902762	120.296009	257.648887	-430.265287	-213.961467	945.673430	-231.668304	-9.431798	81.283045	-433.442802	-9.551297	81.203879	-32.719415	
